<svg id="76d2d389-d102-4bf9-be16-a9434208043b" data-name="Layer 1" xmlns="http://www.w3.org/2000/svg" viewBox="0 0 438.34 260.74"><defs><style>.\31 dbeb460-ac96-42eb-be67-6d5e9766e180{fill:#fff;}.\39 6c295a2-a385-43af-bae6-af0f219faffc{fill:#7d7e81;}</style></defs><title>logo</title><path class="1dbeb460-ac96-42eb-be67-6d5e9766e180" d="M42.64,166.92q-2.41,0-4.9-.13-1.25,3.33-4.85,10.89L24,196.34,14.21,176q-2-4.11-4.17-9.19-2.13.13-5,.13-3,0-4.82-.13L0,167v1.26l0.21,0.21a14.94,14.94,0,0,1,3.68.31,1.57,1.57,0,0,1,.89.8,16.92,16.92,0,0,1,.31,4q0.06,3.42.06,5.8v12q-0.08,6.68-.12,8a4.24,4.24,0,0,1-.34,1.86,1.64,1.64,0,0,1-1,.71,17.9,17.9,0,0,1-3.52.26L0,202.45v1.26l0.21,0.21q5.37-.21,6.2-0.21,1.84,0,4.41.13l1.66,0.08,0.23-.24v-1.26l-0.21-.21a14.93,14.93,0,0,1-3.68-.31,1.66,1.66,0,0,1-.91-0.78,15.29,15.29,0,0,1-.32-3.86q-0.06-3.34-.07-5.9V173l12.39,26q0.93,2,2.38,5.39h1q2.52-6.26,5.88-13.35l8.94-18.9V191.4q-0.08,6.52-.13,8a4.66,4.66,0,0,1-.34,1.92,1.61,1.61,0,0,1-1,.69,18.7,18.7,0,0,1-3.54.29l-0.21.21v1.26l0.23,0.21q5.11-.24,7.23-0.23,3.13,0,7.36.23l0.23-.21v-1.28l-0.21-.18a16.13,16.13,0,0,1-3.68-.33,1.53,1.53,0,0,1-.89-0.79,16.23,16.23,0,0,1-.33-3.83q-0.08-3.3-.08-5.92V179.33q0.1-6.57.14-8a4.46,4.46,0,0,1,.32-1.9,1.61,1.61,0,0,1,1-.69,18.73,18.73,0,0,1,3.54-.29l0.21-.18V167l-0.23-.21Q44.82,166.92,42.64,166.92Z"/><path class="1dbeb460-ac96-42eb-be67-6d5e9766e180" d="M71.76,177.59a13.81,13.81,0,0,0-7-1.67,14.86,14.86,0,0,0-7.34,1.74,11.54,11.54,0,0,0-4.78,5,16.44,16.44,0,0,0-1.65,7.5,15.41,15.41,0,0,0,3.42,10.23q3.42,4.1,10,4.1a13.84,13.84,0,0,0,5.1-.86,12.18,12.18,0,0,0,4.21-3,14.2,14.2,0,0,0,3.12-5,19,19,0,0,0,1.08-6.6,14.18,14.18,0,0,0-1.61-6.76A11.55,11.55,0,0,0,71.76,177.59Zm-1.12,21.82a6.58,6.58,0,0,1-5.81,3.24,7.07,7.07,0,0,1-6.49-4.08,19.84,19.84,0,0,1-2.25-9.72q0-5.49,2.24-8.21a7.58,7.58,0,0,1,12.21.8q2.2,3.52,2.2,9.33A15.69,15.69,0,0,1,70.65,199.42Z"/><path class="1dbeb460-ac96-42eb-be67-6d5e9766e180" d="M106.45,201.9a9.76,9.76,0,0,1-1.66-1.8l-7.73-10a9.54,9.54,0,0,0,5.14-3,7,7,0,0,0,1.63-4.5,5.77,5.77,0,0,0-1.05-3.44,5.44,5.44,0,0,0-2.56-2,10.6,10.6,0,0,0-3.64-.55l-4.9.12q-3.25.12-3.94,0.11-3.22,0-5.73-.23l-0.21.2V178L82,178.24a10.86,10.86,0,0,1,2.39.36,1.55,1.55,0,0,1,.73.74,10.78,10.78,0,0,1,.35,3.36q0.05,2.8.05,5.07v4.94q0,3.63-.05,5.75a8,8,0,0,1-.33,2.67,1.5,1.5,0,0,1-.71.74,11.37,11.37,0,0,1-2.42.39l-0.21.2v1.22L82,203.94q2.53-.24,5.73-0.23t5.75,0.23l0.21-.23v-1.22l-0.21-.2a13,13,0,0,1-2.4-.38,1.4,1.4,0,0,1-.73-0.73,11.19,11.19,0,0,1-.33-3.31Q90,195.1,90,192.72V179.06a15.19,15.19,0,0,1,3.73-.49,5.06,5.06,0,0,1,3.9,1.4,5.3,5.3,0,0,1,1.29,3.75,5.62,5.62,0,0,1-1.48,4q-1.48,1.59-5.37,1.58H91.28l-0.37.55,10.79,14.1a27.47,27.47,0,0,1,3.3-.2,24.71,24.71,0,0,1,3,.2l0.21-.23v-1.22l-0.21-.2A2.9,2.9,0,0,1,106.45,201.9Z"/><path class="1dbeb460-ac96-42eb-be67-6d5e9766e180" d="M136,201a16.39,16.39,0,0,1-2.33-4.51l-8.13-20.4h-1.76l-8,19.62a37.41,37.41,0,0,1-1.84,3.85,6.74,6.74,0,0,1-1.71,2.24,3.66,3.66,0,0,1-2.08.51l-0.21.2v1.22l0.16,0.23q2.66-.24,4.85-0.23t4.82,0.23l0.16-.23v-1.22l-0.21-.2a7.21,7.21,0,0,1-2.78-.55,1.32,1.32,0,0,1-.81-1.19,5.2,5.2,0,0,1,.35-1.56q0.35-1,1.49-3.91,2.5-.06,5-0.06,3.15,0,5.28.06a29.7,29.7,0,0,1,1.42,3.46,10.75,10.75,0,0,1,.63,2.27,1,1,0,0,1-.41.83,9.38,9.38,0,0,1-3.16.65l-0.19.2v1.22l0.16,0.23q4.34-.24,6.13-0.23,2.08,0,6.08.23l0.19-.23v-1.22l-0.19-.2A4.68,4.68,0,0,1,136,201Zm-13-7.56q-2.64,0-4.37-.06l4.47-11,4.45,11Q125.75,193.41,123,193.41Z"/><path class="1dbeb460-ac96-42eb-be67-6d5e9766e180" d="M167,181.44a11,11,0,0,0-2.71-2.78A10.1,10.1,0,0,0,161,177.1a15.73,15.73,0,0,0-4-.45l-9.14.17q-1.73,0-5.36-.23l-0.21.2V178l0.21,0.23a10.86,10.86,0,0,1,2.39.36,1.55,1.55,0,0,1,.73.74,10.87,10.87,0,0,1,.35,3.36q0.05,2.8.05,5.07v4.94q0,3.63-.05,5.75a7.94,7.94,0,0,1-.33,2.67,1.49,1.49,0,0,1-.71.74,11.4,11.4,0,0,1-2.42.39l-0.21.2v1.22l0.21,0.23,5.44-.23,6,0.09a20.8,20.8,0,0,0,6-.79,11,11,0,0,0,4.64-2.82,15.1,15.1,0,0,0,3.26-5,16.66,16.66,0,0,0,1.23-6.42,15.54,15.54,0,0,0-.47-3.82A10.92,10.92,0,0,0,167,181.44Zm-4.4,15a8.13,8.13,0,0,1-3.38,4.26,11.13,11.13,0,0,1-5.61,1.26,25.63,25.63,0,0,1-3-.15V178.56q2.1-.18,3.94-0.17a8.21,8.21,0,0,1,6.93,3,12.85,12.85,0,0,1,2.34,8.07A18.72,18.72,0,0,1,162.64,196.41Z"/><path class="1dbeb460-ac96-42eb-be67-6d5e9766e180" d="M196.53,201a16.38,16.38,0,0,1-2.33-4.51l-8.13-20.4h-1.76l-8,19.62a37.61,37.61,0,0,1-1.84,3.85,6.74,6.74,0,0,1-1.7,2.24,3.66,3.66,0,0,1-2.08.51l-0.21.2v1.22l0.16,0.23q2.66-.24,4.85-0.23t4.82,0.23l0.16-.23v-1.22l-0.21-.2a7.21,7.21,0,0,1-2.78-.55,1.32,1.32,0,0,1-.81-1.19A5.17,5.17,0,0,1,177,199q0.35-1,1.49-3.91,2.5-.06,5-0.06,3.15,0,5.28.06a29.87,29.87,0,0,1,1.43,3.46,10.76,10.76,0,0,1,.63,2.27,1,1,0,0,1-.41.83,9.35,9.35,0,0,1-3.16.65l-0.19.2v1.22l0.16,0.23q4.34-.24,6.13-0.23,2.08,0,6.07.23l0.19-.23v-1.22l-0.19-.2A4.67,4.67,0,0,1,196.53,201Zm-13-7.56q-2.64,0-4.37-.06l4.48-11,4.45,11Q186.23,193.41,183.49,193.41Z"/><path class="1dbeb460-ac96-42eb-be67-6d5e9766e180" d="M248.35,166.92q-3.88,0-6-.13l-0.21.23v1.2l0.21,0.21a17.69,17.69,0,0,1,2.42.17A2.51,2.51,0,0,1,246,169a1.87,1.87,0,0,1,.45,1.11q0.13,0.83.22,3.9t0.09,4v20.27q-2.28-2.51-4.48-5.31l-12.16-15.4-8.27-10.84q-1.68.13-4.3,0.13-1.12,0-4.69-.13l-0.21.23v1.23l0.21,0.21a17.09,17.09,0,0,1,2.82.2,2.1,2.1,0,0,1,1.31.81,3.31,3.31,0,0,1,.48,2V192.6q0,1.23-.09,4.08t-0.18,3.67a2.52,2.52,0,0,1-.36,1.18,1.91,1.91,0,0,1-1.22.52,17.92,17.92,0,0,1-2.53.18l-0.23.21v1.2l0.23,0.24q2.9-.18,6.76-0.18a36.3,36.3,0,0,1,4.36.18l0.21-.21v-1.23l-0.21-.21a12.5,12.5,0,0,1-2.84-.24,2,2,0,0,1-.89-0.46,2.12,2.12,0,0,1-.34-0.9,35,35,0,0,1-.22-3.74q-0.09-3.09-.09-4.29V172.52l17.57,22.18,5.52,6.81,1.84,2.2a41.34,41.34,0,0,1,4.48,1.1q-0.05-3.56-.1-7.1l0-7.2V178.07q0-1.26.09-4.11t0.18-3.61a3,3,0,0,1,.32-1.15,1.67,1.67,0,0,1,1.17-.56,17.34,17.34,0,0,1,2.64-.2l0.21-.21V167l-0.23-.23Q251.9,166.92,248.35,166.92Z"/><path class="1dbeb460-ac96-42eb-be67-6d5e9766e180" d="M277.25,177.59a13.81,13.81,0,0,0-7-1.67,14.85,14.85,0,0,0-7.34,1.74,11.54,11.54,0,0,0-4.78,5,16.44,16.44,0,0,0-1.65,7.5,15.42,15.42,0,0,0,3.42,10.23q3.42,4.1,10,4.1a13.84,13.84,0,0,0,5.1-.86,12.16,12.16,0,0,0,4.21-3,14.22,14.22,0,0,0,3.12-5,19,19,0,0,0,1.08-6.6,14.16,14.16,0,0,0-1.61-6.76A11.57,11.57,0,0,0,277.25,177.59Zm-1.12,21.82a6.58,6.58,0,0,1-5.81,3.24,7.07,7.07,0,0,1-6.49-4.08,19.83,19.83,0,0,1-2.25-9.72q0-5.49,2.24-8.21a7.58,7.58,0,0,1,12.21.8q2.2,3.52,2.2,9.33A15.69,15.69,0,0,1,276.13,199.42Z"/><path class="1dbeb460-ac96-42eb-be67-6d5e9766e180" d="M312.72,178.79a4.78,4.78,0,0,1,1.69-.55l0.21-.23v-1.22l-0.21-.2a42.25,42.25,0,0,1-4.58.23q-2.21,0-5.09-.23l-0.21.2V178l0.21,0.23a6.09,6.09,0,0,1,3,.89,1.77,1.77,0,0,1,.52,1.26,4.93,4.93,0,0,1-.27,1.44q-0.26.86-1.49,4.11l-4.61,12.21h-0.48L296,183.82q-0.94-2.53-1.11-3a2.83,2.83,0,0,1-.17-0.93,1.15,1.15,0,0,1,.41-0.87,6.5,6.5,0,0,1,2.49-.75l0.19-.23v-1.22l-0.19-.2q-2.82.23-5.67,0.23-2.61,0-5.75-.23l-0.21.2V178l0.21,0.23a5.94,5.94,0,0,1,2.22.75,3.88,3.88,0,0,1,1.11,1.26q0.45,0.8,3.49,8.62l5.89,15.17h2.4l4.1-10.23q2.34-5.84,3.73-9.11a26.28,26.28,0,0,1,2.2-4.4A5.55,5.55,0,0,1,312.72,178.79Z"/><path class="1dbeb460-ac96-42eb-be67-6d5e9766e180" d="M340,202.28a4.69,4.69,0,0,1-2.81-1.31,16.39,16.39,0,0,1-2.33-4.51l-8.13-20.4h-1.76l-8,19.62a37.4,37.4,0,0,1-1.84,3.85,6.7,6.7,0,0,1-1.7,2.24,3.65,3.65,0,0,1-2.08.51l-0.21.2v1.22l0.16,0.23q2.67-.24,4.85-0.23t4.82,0.23l0.16-.23v-1.22l-0.21-.2a7.21,7.21,0,0,1-2.78-.55,1.32,1.32,0,0,1-.81-1.19,5.19,5.19,0,0,1,.35-1.56q0.35-1,1.49-3.91,2.5-.06,5-0.06,3.14,0,5.28.06a29.86,29.86,0,0,1,1.43,3.46,10.76,10.76,0,0,1,.63,2.27,1,1,0,0,1-.41.83,9.39,9.39,0,0,1-3.16.65l-0.19.2v1.22l0.16,0.23q4.34-.24,6.13-0.23,2.08,0,6.07.23l0.19-.23v-1.22Zm-15.85-8.86q-2.63,0-4.37-.06l4.47-11,4.45,11Q326.87,193.41,324.12,193.41Z"/><path class="1dbeb460-ac96-42eb-be67-6d5e9766e180" d="M382.08,17.4l7.29,34,30,17.5L393.6,92.18l-0.14,34.75-33.07-10.68L330.22,133.5l-7.28-34-30-17.5,25.79-23.3L318.84,24l33.06,10.68L382.08,17.4M389.85,0L350.64,22.42l-43-13.89L307.47,53.7,274,84l39,22.75,9.46,44.17,39.21-22.42,43,13.88,0.19-45.17,33.52-30.28-39-22.75L389.85,0h0Z"/><path class="1dbeb460-ac96-42eb-be67-6d5e9766e180" d="M122.5,244.15c-0.33,0-.72,0-1.17.06l-1.76.05-1.48,0h-1.8l0-.13q1.22-1.15,1.82-1.74a34.82,34.82,0,0,0,2.46-2.54,6.17,6.17,0,0,0,1.29-2.29,4.62,4.62,0,0,0,.15-1.22,3.41,3.41,0,0,0-1-2.59,4.36,4.36,0,0,0-3.15-1.07,4.82,4.82,0,0,0-3.56,1.28l-0.38,3.39,0.1,0.1h0.58l0.11-.1,0.4-1.52a2.36,2.36,0,0,1,2-.94q2.22,0,2.22,2.43a4.5,4.5,0,0,1-.17,1.26,6.09,6.09,0,0,1-.59,1.32,21.34,21.34,0,0,1-3,3.6l-2.07,2.11v0.92l0.13,0.12q2.55-.1,4.41-0.1t4.57,0.11l0.12-.14a12,12,0,0,1,0-2.25Z"/><path class="1dbeb460-ac96-42eb-be67-6d5e9766e180" d="M132.08,237.86a6.49,6.49,0,0,0-2.75.7l0.08-3.32q0.9-.08,3-0.08,1.75,0,3,.06l0.1-.13c0-.3,0-0.53,0-0.7a13.7,13.7,0,0,1,.12-1.45l-0.09-.16q-2,.11-3.09.11-1.68,0-4.13-.11l-0.13.1q0.15,1.66.15,3.16v1.4q0,1.24-.13,3.2l0.4,0.22a3.93,3.93,0,0,1,2.33-.85,2.62,2.62,0,0,1,2,.79,3,3,0,0,1,.73,2.15,3.42,3.42,0,0,1-.29,1.46,2.29,2.29,0,0,1-2.24,1.39,3.4,3.4,0,0,1-3.26-2.35l-0.14-.06-0.49.17-0.06.14a27.79,27.79,0,0,1,.65,2.84,6.56,6.56,0,0,0,2.34.48,6.05,6.05,0,0,0,4.27-1.61,4.9,4.9,0,0,0,1.7-3.75,3.65,3.65,0,0,0-1.09-2.77A4.09,4.09,0,0,0,132.08,237.86Z"/><path class="1dbeb460-ac96-42eb-be67-6d5e9766e180" d="M163.35,245.65a1.51,1.51,0,0,1-.57-0.81l-5.38-12.67H156l-0.89,2.33-2.65,6.63q-1.55,3.88-1.79,4.23a1.69,1.69,0,0,1-1.28.42l-0.11.1v0.66l0.1,0.09,2.06-.06,2.42,0.06,0.1-.1v-0.65l-0.1-.1q-0.77,0-1-.08a0.46,0.46,0,0,1-.48-0.46,7.77,7.77,0,0,1,.51-1.77l0.45-1.24,2.36,0,2.86,0,0.82,2.14a3.75,3.75,0,0,1,.28,1q0,0.37-.56.4l-0.88.05-0.1.11v0.64l0.09,0.1q1.6-.06,3.47-0.06l2.72,0.06,0.09-.1v-0.65l-0.09-.11A3,3,0,0,1,163.35,245.65Zm-7.48-4.55q-1.33,0-2.16,0l2.08-5.32,2.17,5.32Q157.16,241.1,155.87,241.1Z"/><path class="1dbeb460-ac96-42eb-be67-6d5e9766e180" d="M184.3,232.3c-0.68,0-1.41,0-2.16-.06l-0.1.09V233l0.1,0.1a11.54,11.54,0,0,1,1.19.1,0.44,0.44,0,0,1,.34.38,22.77,22.77,0,0,1,.13,3.15v5.94q-4.94-5.58-8.59-10.45-0.91.06-2.28,0.06-0.87,0-1.84-.06l-0.1.09V233l0.1,0.1a11.54,11.54,0,0,1,1.19.1,0.44,0.44,0,0,1,.35.38,22.77,22.77,0,0,1,.13,3.15v5.37a22.77,22.77,0,0,1-.13,3.15,0.44,0.44,0,0,1-.35.38,11.56,11.56,0,0,1-1.19.1l-0.1.1v0.69l0.1,0.09q1.18-.06,2.35-0.06,1,0,2.17.06l0.1-.09v-0.69l-0.1-.1a11.56,11.56,0,0,1-1.19-.1,0.44,0.44,0,0,1-.34-0.38,22.46,22.46,0,0,1-.13-3.15v-6.64q6.57,8.09,9.29,11.15l1.74,0.27,0.13-.09q-0.13-1.38-.13-5.94v-4.12a22.78,22.78,0,0,1,.13-3.15,0.44,0.44,0,0,1,.35-0.38,11.47,11.47,0,0,1,1.19-.1l0.11-.1v-0.69l-0.1-.09Q185.61,232.3,184.3,232.3Z"/><path class="1dbeb460-ac96-42eb-be67-6d5e9766e180" d="M201.48,232a9.23,9.23,0,0,0-4.17.85q-3.73,1.88-3.73,6.76a7.3,7.3,0,0,0,2,5.44,7.43,7.43,0,0,0,5.46,2,8,8,0,0,0,5.8-2.07,7.84,7.84,0,0,0,2.18-5.88,6.8,6.8,0,0,0-2-5.2A7.72,7.72,0,0,0,201.48,232Zm3.86,11a3.83,3.83,0,0,1-3.89,2.85,4,4,0,0,1-3.58-1.88,9.17,9.17,0,0,1-1.16-5,9.06,9.06,0,0,1,.51-3.12,3.87,3.87,0,0,1,4-2.71,3.93,3.93,0,0,1,3.47,1.73,8.18,8.18,0,0,1,1.18,4.68A10.3,10.3,0,0,1,205.34,243Z"/><path class="1dbeb460-ac96-42eb-be67-6d5e9766e180" d="M226.21,239.73a3.07,3.07,0,0,0-1.54-1.18,6,6,0,0,0-1.11-.29l-1.19-.2a8.22,8.22,0,0,1-2.59-.68,1.9,1.9,0,0,1-.84-1.72,2.27,2.27,0,0,1,.74-1.76,3.08,3.08,0,0,1,2.15-.72,4.49,4.49,0,0,1,1.74.35,2.41,2.41,0,0,1,1.1.81,12.63,12.63,0,0,1,.1,1.58l0.1,0.1h0.64l0.11-.1a17.78,17.78,0,0,1,.29-2.9l-0.07-.24A8.33,8.33,0,0,0,222,232a6,6,0,0,0-4.12,1.3,4.21,4.21,0,0,0-1.4,3.32,3.43,3.43,0,0,0,1.29,3,9.06,9.06,0,0,0,3.56,1,6.16,6.16,0,0,1,1.74.46,1.93,1.93,0,0,1,1.09,1.86,3.07,3.07,0,0,1-.4,1.49,2.9,2.9,0,0,1-2.78,1.4,4.56,4.56,0,0,1-2.05-.49,2.92,2.92,0,0,1-1.31-1.12,12.07,12.07,0,0,1-.12-1.5V242.5l-0.09-.1h-0.65l-0.1.1a14.85,14.85,0,0,1-.29,3.32L216.5,246a9.64,9.64,0,0,0,4.18,1,7.79,7.79,0,0,0,3-.51,5,5,0,0,0,2.18-1.68,4.81,4.81,0,0,0,1-3A3.88,3.88,0,0,0,226.21,239.73Z"/><path class="1dbeb460-ac96-42eb-be67-6d5e9766e180" d="M339.66,219.22H0.5a0.5,0.5,0,0,1,0-1H339.66A0.5,0.5,0,1,1,339.66,219.22Z"/><path class="1dbeb460-ac96-42eb-be67-6d5e9766e180" d="M339.66,260.74H0.5a0.5,0.5,0,0,1,0-1H339.66A0.5,0.5,0,0,1,339.66,260.74Z"/><polygon class="96c295a2-a385-43af-bae6-af0f219faffc" points="376.98 28.82 352.74 42.68 326.18 34.1 326.07 62.01 305.35 80.73 329.47 94.78 335.32 122.08 359.55 108.22 386.11 116.8 386.23 88.89 406.94 70.17 382.83 56.12 376.98 28.82 376.98 28.82"/></svg>